<svg width="58" height="21" viewBox="0 0 58 21" fill="none" xmlns="http://www.w3.org/2000/svg">
<path fill-rule="evenodd" clip-rule="evenodd" d="M54.8421 8.08771C54.8421 7.47549 55.3254 6.95993 55.9377 6.95993C56.5499 6.95993 57.0332 7.47549 57.0332 8.08771C57.0332 8.69993 56.5499 9.21549 55.9377 9.21549C55.3254 9.24771 54.8421 8.73215 54.8421 8.08771ZM55.9054 8.98993C56.3565 8.98993 56.7432 8.60326 56.7432 8.11993C56.7432 7.6366 56.3565 7.24993 55.9054 7.24993C55.4543 7.24993 55.0677 7.6366 55.0677 8.11993C55.0677 8.60326 55.4543 8.98993 55.9054 8.98993ZM55.7765 8.60326H55.551V7.60437H55.9699C56.0665 7.60437 56.1632 7.60437 56.2277 7.66882C56.3243 7.73326 56.3565 7.82993 56.3565 7.9266C56.3565 8.05549 56.2921 8.15215 56.1954 8.18437L56.3888 8.63549H56.0665L55.9054 8.24882H55.7443V8.60326H55.7765ZM55.7765 8.02326H55.9054C55.9699 8.02326 56.0021 8.02326 56.0343 7.99104C56.0665 7.95882 56.0988 7.9266 56.0988 7.86215C56.0988 7.82993 56.0665 7.76549 56.0343 7.76549C56.0021 7.73326 55.9377 7.73326 55.9054 7.73326H55.7765V8.02326Z" fill="#C2CFE0"/>
<path fill-rule="evenodd" clip-rule="evenodd" d="M39.2143 0.451054L38.9243 2.41661C38.2799 2.06217 37.7965 1.93328 37.281 1.93328C35.9277 1.93328 34.961 3.31883 34.961 5.28439C34.961 6.63772 35.6054 7.4755 36.6688 7.4755C37.1199 7.4755 37.6032 7.31439 38.2154 7.02439L37.8932 9.08661C37.2165 9.27994 36.7977 9.34439 36.2821 9.34439C34.3165 9.34439 33.0921 7.86216 33.0921 5.47772C33.0921 2.2555 34.7677 0.0321655 37.2165 0.0321655C37.5388 0.0321655 37.7965 0.0643877 38.0543 0.128832L38.8277 0.322165C38.9888 0.38661 39.0532 0.38661 39.2143 0.451054Z" fill="#C2CFE0"/>
<path fill-rule="evenodd" clip-rule="evenodd" d="M33.1245 1.80444C33.06 1.77222 32.9956 1.77222 32.9311 1.77222C32.3511 1.77222 31.9967 2.09444 31.4167 2.96444L31.5778 1.86888H29.9667L28.8389 9.1511H30.6756C31.3522 4.67222 31.5133 3.93111 32.3833 3.93111C32.4478 3.93111 32.4478 3.93111 32.5122 3.93111C32.6733 3.06111 32.8989 2.41666 33.2211 1.80444H33.1245Z" fill="#C2CFE0"/>
<path fill-rule="evenodd" clip-rule="evenodd" d="M22.2011 9.05452C21.7178 9.21563 21.2989 9.3123 20.88 9.3123C19.9455 9.3123 19.43 8.76452 19.43 7.70119C19.43 7.50785 19.4622 7.2823 19.4944 7.02452L19.6233 6.31563L19.72 5.73563L20.5255 0.773407H22.33L22.1044 1.83674H23.0389L22.7811 3.60896H21.8466L21.3633 6.63785C21.3311 6.76674 21.3311 6.86341 21.3311 6.92785C21.3311 7.31452 21.5244 7.47563 21.9433 7.47563C22.1689 7.47563 22.2978 7.44341 22.4266 7.41119L22.2011 9.05452Z" fill="#C2CFE0"/>
<path fill-rule="evenodd" clip-rule="evenodd" d="M15.0156 4.15662C15.0156 5.09106 15.4345 5.70328 16.4011 6.18662C17.1422 6.54106 17.2711 6.66995 17.2711 6.99217C17.2711 7.44328 16.9489 7.66884 16.24 7.66884C15.6922 7.66884 15.2089 7.57217 14.5967 7.37884L14.3389 9.05439L14.4356 9.08662L14.7578 9.15106C14.8867 9.18328 15.0156 9.21551 15.2411 9.21551C15.66 9.24773 16.0145 9.27995 16.24 9.27995C18.1733 9.27995 19.0433 8.50662 19.0433 6.86328C19.0433 5.86439 18.6889 5.2844 17.7545 4.83328C16.9811 4.47884 16.9167 4.38217 16.9167 4.02773C16.9167 3.64106 17.2067 3.44773 17.8189 3.44773C18.1733 3.44773 18.6567 3.51217 19.14 3.57662L19.3978 1.90106C18.9145 1.8044 18.2056 1.73995 17.7867 1.73995C15.6922 1.70773 14.9833 2.80328 15.0156 4.15662Z" fill="#C2CFE0"/>
<path fill-rule="evenodd" clip-rule="evenodd" d="M53.7788 9.1511H52.0388L52.1354 8.44221C51.6521 8.98999 51.1043 9.24777 50.4599 9.24777C49.1065 9.24777 48.2365 8.05555 48.2365 6.21888C48.2365 3.80221 49.5899 1.73999 51.201 1.73999C51.9099 1.73999 52.4254 2.06221 52.941 2.73888L53.3277 0.161102H55.1321L53.7788 9.1511ZM51.0721 7.44333C51.9421 7.44333 52.5221 6.44444 52.5221 4.99444C52.5221 4.05999 52.1677 3.54444 51.5554 3.54444C50.7177 3.54444 50.1377 4.57555 50.1377 5.99332C50.1377 6.92777 50.4599 7.44333 51.0721 7.44333Z" fill="#C2CFE0"/>
<path fill-rule="evenodd" clip-rule="evenodd" d="M28.0011 8.98995C27.3889 9.18328 26.7767 9.27995 26.1322 9.27995C24.1022 9.27995 23.0389 8.15217 23.0389 5.99328C23.0389 3.47995 24.3922 1.64328 26.2289 1.64328C27.7433 1.64328 28.6778 2.67439 28.6778 4.31772C28.6778 4.83328 28.6133 5.38106 28.4522 6.12217H24.7789C24.7467 6.25106 24.7467 6.28328 24.7467 6.34772C24.7467 7.21772 25.2944 7.63661 26.3578 7.63661C27.0022 7.63661 27.5822 7.4755 28.2589 7.1855L28.0011 8.98995ZM26.97 4.63995C27.0022 4.47884 27.0022 4.34995 27.0022 4.2855C27.0022 3.7055 26.68 3.35106 26.1322 3.35106C25.5522 3.35106 25.1333 3.80217 24.9722 4.67217H26.97V4.63995Z" fill="#C2CFE0"/>
<path fill-rule="evenodd" clip-rule="evenodd" d="M7.66883 9.15104H5.86438L6.8955 2.25549L4.54327 9.15104H3.31883L3.15772 2.28771L2.06216 9.15104H0.354385L1.77216 0.193268H4.38216L4.47883 5.73549L6.25105 0.193268H9.08661L7.66883 9.15104Z" fill="#C2CFE0"/>
<path fill-rule="evenodd" clip-rule="evenodd" d="M12.3732 5.89647C12.1799 5.86425 12.0832 5.86425 11.9543 5.86425C10.9232 5.86425 10.4077 6.25091 10.4077 6.9598C10.4077 7.41091 10.6654 7.70091 11.0843 7.70091C11.7932 7.73313 12.341 6.9598 12.3732 5.89647ZM13.6943 9.15091H12.1799L12.2121 8.37758C11.761 8.9898 11.1488 9.24758 10.2788 9.24758C9.27988 9.24758 8.60321 8.44202 8.60321 7.2498C8.60321 5.47758 9.79543 4.44647 11.8254 4.44647C12.051 4.44647 12.3088 4.47869 12.5665 4.51091C12.631 4.25314 12.631 4.15647 12.631 4.02758C12.631 3.54425 12.3088 3.35091 11.471 3.35091C10.9554 3.35091 10.3754 3.44758 9.95654 3.57647L9.73099 3.67314L9.56988 3.73758L9.82765 2.09425C10.7299 1.80425 11.3421 1.70758 12.0188 1.70758C13.5977 1.70758 14.4032 2.44869 14.4032 3.83425C14.4032 4.18869 14.371 4.44647 14.2421 5.28425L13.8554 7.86202L13.791 8.31314L13.7588 8.6998L13.7265 8.95758L13.6943 9.15091Z" fill="#C2CFE0"/>
<path fill-rule="evenodd" clip-rule="evenodd" d="M42.3722 5.89656C42.1789 5.86433 42.0822 5.86434 41.9533 5.86434C40.9222 5.86434 40.3744 6.251 40.3744 6.95989C40.3744 7.411 40.6322 7.701 41.0511 7.701C41.7922 7.73322 42.34 6.95989 42.3722 5.89656ZM43.6933 9.151H42.1789L42.2111 8.37767C41.76 8.98989 41.1478 9.24767 40.2778 9.24767C39.2789 9.24767 38.6022 8.44211 38.6022 7.24989C38.6022 5.47767 39.7944 4.44656 41.8244 4.44656C42.0178 4.44656 42.3078 4.47878 42.5655 4.511C42.63 4.25322 42.63 4.15656 42.63 4.02767C42.63 3.54433 42.3078 3.351 41.47 3.351C40.9544 3.351 40.3744 3.44767 39.9555 3.57656L39.6978 3.641L39.5366 3.70545L39.7944 2.06211C40.6966 1.77211 41.3089 1.67545 41.9855 1.67545C43.5644 1.67545 44.37 2.41656 44.37 3.80211C44.37 4.15656 44.3378 4.41433 44.2089 5.25211L43.8222 7.82989L43.7578 8.281L43.6933 8.63545L43.6611 8.89322L43.6933 9.151Z" fill="#C2CFE0"/>
<path fill-rule="evenodd" clip-rule="evenodd" d="M48.7844 1.80444C48.72 1.77222 48.6556 1.77222 48.5911 1.77222C48.0111 1.77222 47.6567 2.09444 47.0767 2.96444L47.2378 1.86888H45.5945L44.4667 9.1511H46.3033C46.98 4.67222 47.1411 3.93111 48.0111 3.93111C48.0756 3.93111 48.0756 3.93111 48.14 3.93111C48.3011 3.06111 48.5267 2.41666 48.8489 1.80444H48.7844Z" fill="#C2CFE0"/>
<path fill-rule="evenodd" clip-rule="evenodd" d="M41.1156 16.2399C41.1156 17.8832 40.6 18.8821 39.7945 18.8821C39.2145 18.9143 38.86 18.2377 38.86 17.271C38.86 16.111 39.3756 14.7899 40.2134 14.7899C40.89 14.7577 41.1156 15.4666 41.1156 16.2399ZM42.92 16.2399C42.92 14.4032 42.0178 12.9532 40.31 12.9532C38.3445 12.9532 37.0556 14.6932 37.0556 17.2388C37.0556 19.0754 37.8289 20.5899 39.6656 20.5899C41.5667 20.6221 42.92 19.301 42.92 16.2399Z" fill="#C2CFE0"/>
<path fill-rule="evenodd" clip-rule="evenodd" d="M37.6677 11.6967L37.3777 13.6622C36.7655 13.3078 36.3466 13.1789 35.8633 13.1789C34.6066 13.1789 33.7044 14.5645 33.7044 16.53C33.7044 17.8834 34.2844 18.7211 35.2833 18.7211C35.7022 18.7211 36.1855 18.56 36.7333 18.27L36.4433 20.3322C35.8311 20.5256 35.4122 20.59 34.9288 20.59C33.0922 20.59 31.9322 19.1078 31.9322 16.7234C31.9322 13.5011 33.5111 11.2778 35.7988 11.2778C36.0888 11.2778 36.3466 11.31 36.5722 11.3745L37.2811 11.5678C37.4422 11.6 37.5066 11.6322 37.6677 11.6967Z" fill="#C2CFE0"/>
<path fill-rule="evenodd" clip-rule="evenodd" d="M26.3577 13.0176C26.2933 12.9854 26.2289 12.9854 26.1644 12.9854C25.6166 12.9854 25.2944 13.3076 24.7466 14.1776L24.9077 13.082H23.3611L22.33 20.3643H24.0377C24.6822 15.9176 24.8433 15.1443 25.6489 15.1443C25.7133 15.1443 25.7133 15.1443 25.7777 15.1765C25.9389 14.3065 26.1322 13.662 26.4222 13.0498L26.3577 13.0176Z" fill="#C2CFE0"/>
<path fill-rule="evenodd" clip-rule="evenodd" d="M48.6556 20.2999H47.0444L47.1411 19.591C46.69 20.1388 46.1744 20.3966 45.5622 20.3966C44.3378 20.3966 43.5 19.2044 43.5 17.3677C43.5 14.951 44.7889 12.8888 46.2711 12.8888C46.9478 12.8888 47.4311 13.211 47.9144 13.8877L48.3011 11.3099H49.9767L48.6556 20.2999ZM46.11 18.5922C46.9156 18.5922 47.4633 17.5933 47.4633 16.1433C47.4633 15.2088 47.1411 14.7255 46.5611 14.7255C45.7878 14.7255 45.24 15.7244 45.24 17.1744C45.24 18.1088 45.53 18.5922 46.11 18.5922Z" fill="#C2CFE0"/>
<path fill-rule="evenodd" clip-rule="evenodd" d="M10.3755 20.2677C9.79552 20.4611 9.24774 20.5577 8.63552 20.5577C6.73441 20.5577 5.73552 19.4299 5.73552 17.2711C5.73552 14.7899 6.99219 12.9211 8.69996 12.9211C10.1177 12.9211 10.9877 13.9522 10.9877 15.5955C10.9877 16.1111 10.9233 16.6588 10.7622 17.3999H7.37885C7.34663 17.5288 7.34663 17.5611 7.34663 17.6255C7.34663 18.4633 7.86219 18.8822 8.86108 18.8822C9.4733 18.8822 10.0211 18.7211 10.6333 18.4311L10.3755 20.2677ZM9.40885 15.9499C9.40885 15.7888 9.44108 15.6599 9.44108 15.5955C9.44108 15.0155 9.15108 14.6611 8.63552 14.6611C8.08774 14.6611 7.70108 15.1122 7.53996 15.9822H9.40885V15.9499Z" fill="#C2CFE0"/>
<path fill-rule="evenodd" clip-rule="evenodd" d="M30.6755 20.2677C30.0955 20.4611 29.5478 20.5577 28.9355 20.5577C27.0022 20.5577 26.0355 19.4299 26.0355 17.2711C26.0355 14.7899 27.2922 12.9211 29 12.9211C30.4178 12.9211 31.32 13.9522 31.32 15.5955C31.32 16.1111 31.2555 16.6588 31.0944 17.3999H27.6789C27.6466 17.5288 27.6466 17.5611 27.6466 17.6255C27.6466 18.4633 28.1622 18.8822 29.1611 18.8822C29.7733 18.8822 30.3211 18.7211 30.9333 18.4311L30.6755 20.2677ZM29.7089 15.9499C29.7411 15.7888 29.7411 15.6599 29.7411 15.5955C29.7411 15.0155 29.4511 14.6611 28.9355 14.6611C28.3878 14.6611 28.0011 15.1122 27.84 15.9822H29.7089V15.9499Z" fill="#C2CFE0"/>
<path fill-rule="evenodd" clip-rule="evenodd" d="M54.4555 20.2677C53.8755 20.4611 53.2955 20.5577 52.7155 20.5577C50.8144 20.5577 49.8155 19.4299 49.8155 17.2711C49.8155 14.7899 51.1044 12.9211 52.8122 12.9211C54.2299 12.9211 55.0999 13.9522 55.0999 15.5955C55.0999 16.1111 55.0355 16.6588 54.8744 17.3999H51.491C51.4588 17.5288 51.4588 17.5611 51.4588 17.6255C51.4588 18.4633 51.9744 18.8822 52.9733 18.8822C53.5855 18.8822 54.1333 18.7211 54.7455 18.4311L54.4555 20.2677ZM53.4888 15.9499C53.4888 15.7888 53.521 15.6599 53.521 15.5955C53.521 15.0155 53.231 14.6611 52.7155 14.6611C52.1677 14.6611 51.781 15.1122 51.6199 15.9822H53.4888V15.9499Z" fill="#C2CFE0"/>
<path fill-rule="evenodd" clip-rule="evenodd" d="M5.31661 13.3401C4.99439 13.1145 4.51105 12.9212 3.89883 12.9212C3.18994 12.9212 2.67439 13.0823 2.67439 13.7912C2.67439 15.0801 5.18772 14.5968 5.18772 17.3679C5.18772 19.8812 3.54439 20.5579 2.02994 20.5579C1.35328 20.5579 0.579943 20.3323 0.0321655 20.0745L0.451054 18.2379C0.805499 18.5601 1.48217 18.7534 2.06217 18.7534C2.60994 18.7534 3.44772 18.5923 3.44772 17.6579C3.44772 16.1756 0.934388 16.7234 0.934388 14.1456C0.934388 11.7934 2.41661 11.0845 3.83439 11.0845C4.63994 11.0845 5.38105 11.2134 5.83217 11.5034L5.31661 13.3401Z" fill="#C2CFE0"/>
<path fill-rule="evenodd" clip-rule="evenodd" d="M15.37 20.2676C15.0156 20.4287 14.5322 20.5576 13.8556 20.5576C12.3733 20.5576 11.4389 19.0754 11.4389 17.2387C11.4389 14.8543 12.7922 12.9854 14.7578 12.9854C15.1767 12.9854 15.8533 13.1787 16.3689 13.4687L15.9822 15.2087C15.5956 14.9509 15.2089 14.822 14.8222 14.822C13.92 14.822 13.2433 15.6598 13.2433 17.142C13.2433 18.012 13.7267 18.7209 14.4678 18.7209C14.9189 18.7209 15.2411 18.6243 15.5956 18.3987L15.37 20.2676Z" fill="#C2CFE0"/>
<path fill-rule="evenodd" clip-rule="evenodd" d="M21.7499 18.431C21.6533 19.0433 21.5888 19.6555 21.5244 20.2999H19.881L20.0099 19.1399H19.9777C19.4621 19.9455 18.9466 20.4933 17.9799 20.4933C16.9488 20.4933 16.401 19.3977 16.401 18.0122C16.401 17.5288 16.4333 17.2388 16.5299 16.4977L16.981 13.1144H18.8177L18.3666 16.4977C18.3021 16.8522 18.2377 17.2388 18.2377 17.5933C18.2377 18.0122 18.431 18.4633 18.9466 18.431C19.6877 18.431 20.1388 17.5288 20.2677 16.4333L20.7833 13.0822H22.5555L21.7499 18.431Z" fill="#C2CFE0"/>
<path fill-rule="evenodd" clip-rule="evenodd" d="M56.1632 20.2354H55.8732V19.0431H55.4865V18.7854H56.5499V19.0431H56.1632V20.2354Z" fill="#C2CFE0"/>
<path fill-rule="evenodd" clip-rule="evenodd" d="M58 20.2354H57.7422V19.0109L57.4845 20.2354H57.2267L56.9689 19.0109V20.2354H56.7111V18.7854H57.13L57.3556 19.9454H57.3878L57.6133 18.7854H58V20.2354Z" fill="#C2CFE0"/>
</svg>
