<svg width="52" height="22" viewBox="0 0 52 22" fill="none" xmlns="http://www.w3.org/2000/svg">
<path d="M0 0.637949C0.408353 0.561383 0.842227 0.484817 1.25058 0.408251C1.40371 0.382729 1.55684 0.357207 1.70998 0.331685C1.81206 0.306162 1.83759 0.331685 1.86311 0.433773C2.27146 2.62867 2.70534 4.82356 3.13921 6.99294C3.13921 6.99294 3.13921 7.01846 3.16473 7.04398C3.21578 7.01846 3.21578 6.96742 3.2413 6.91637C4.31322 4.79804 5.38515 2.65419 6.43155 0.535861C6.4826 0.433773 6.53364 0.382729 6.66125 0.408251C7.14617 0.408251 7.63109 0.408251 8.14153 0.408251C8.19258 0.408251 8.24362 0.408251 8.29466 0.433773C8.09049 0.816603 7.88631 1.17391 7.70766 1.55674C6.35499 4.08343 5.00232 6.61011 3.67517 9.13679C3.59861 9.2644 3.52204 9.31544 3.39443 9.31544C2.93503 9.31544 2.47564 9.31544 2.04176 9.31544C1.9652 9.31544 1.91415 9.28992 1.88863 9.18783C1.2761 6.40593 0.663573 3.64955 0.0510441 0.89317C0.0510441 0.842125 0.0510441 0.791081 0 0.740037C0 0.688993 0 0.663471 0 0.637949Z" fill="#C2CFE0"/>
<path d="M51.0441 4.59383C50.8144 5.05323 50.5592 5.51263 50.3295 5.9465C49.717 7.14604 49.0789 8.3711 48.4664 9.57063C48.2622 9.97899 48.007 10.3618 47.6242 10.6681C47.1648 11.0254 46.6288 11.0764 46.0928 10.9999C46.0163 10.9999 45.9908 10.9488 45.9908 10.8978C45.9908 10.6426 45.9908 10.3873 45.9908 10.1066C45.9908 10.03 46.0163 10.0045 46.0928 10.03C46.1439 10.0556 46.2205 10.0556 46.2715 10.0556C46.884 10.1321 47.2669 9.90242 47.471 9.31541C47.4966 9.26437 47.4966 9.21333 47.471 9.16228C47.1648 7.682 46.833 6.22725 46.5267 4.74697C46.5012 4.6704 46.5267 4.61936 46.6033 4.61936C46.9351 4.59383 47.2924 4.54279 47.6242 4.49175C47.7263 4.46622 47.7518 4.51727 47.7518 4.59383C47.9049 5.46158 48.058 6.32933 48.1856 7.19708C48.2112 7.37574 48.2367 7.55439 48.2877 7.75857C48.3388 7.75857 48.3388 7.70752 48.3643 7.65648C48.8492 6.66112 49.3086 5.66576 49.768 4.6704C49.8191 4.56831 49.8701 4.51727 49.9977 4.51727C50.3295 4.51727 50.6613 4.51727 50.9931 4.51727C51.0441 4.56831 51.0441 4.56831 51.0441 4.59383Z" fill="#C2CFE0"/>
<path d="M30.0394 22C29.0951 21.9745 28.1508 21.8724 27.2575 21.5406C27.1299 21.4896 27.0789 21.4385 27.1044 21.2854C27.232 20.6218 27.3341 19.9583 27.4362 19.2692C27.4617 19.1671 27.4872 19.1926 27.5382 19.2181C28.0232 19.4478 28.5336 19.6775 29.044 19.7541C29.6566 19.8562 30.2691 19.9327 30.9072 19.7796C31.1369 19.7286 31.3666 19.6265 31.5452 19.4478C31.877 19.116 31.9025 18.6566 31.5707 18.3249C31.3155 18.0696 31.0092 17.891 30.703 17.7378C30.2436 17.5081 29.8097 17.2784 29.4014 16.9977C28.8909 16.6149 28.457 16.1555 28.2784 15.543C28.0487 14.6497 28.2529 13.833 28.8144 13.0928C29.3758 12.3782 30.116 11.9699 30.9837 11.7402C32.2854 11.4084 33.5615 11.4849 34.8376 11.9188C34.9141 11.9443 34.9652 11.9954 34.9396 12.072C34.8376 12.7355 34.7099 13.3991 34.6079 14.0627C34.5823 14.1648 34.5568 14.1648 34.4802 14.1137C33.7146 13.7309 32.8724 13.6033 32.0301 13.6798C31.7239 13.7054 31.4176 13.8075 31.1624 14.0116C30.8306 14.2924 30.8051 14.6752 31.1113 15.007C31.4176 15.3133 31.7749 15.4919 32.1577 15.6706C32.6427 15.9258 33.1021 16.1555 33.5359 16.4873C34.0719 16.9211 34.4547 17.4316 34.5313 18.1207C34.6589 19.3202 34.2505 20.29 33.3062 21.0302C32.6682 21.5151 31.928 21.7703 31.1624 21.8724C30.7795 21.9745 30.3967 22.0255 30.0394 22Z" fill="#C2CFE0"/>
<path d="M17.7634 17.1508C17.8655 17.4316 17.891 17.7378 17.9676 18.0186C18.0186 18.1972 18.0441 18.4014 18.0952 18.6311C18.2228 18.2993 18.3249 17.993 18.4525 17.7123C19.1671 15.7726 19.9072 13.8074 20.6219 11.8678C20.6474 11.7657 20.6984 11.7401 20.8005 11.7401C21.6427 11.7401 22.485 11.7401 23.3272 11.7401C23.3527 11.7401 23.4038 11.7401 23.4548 11.7401C23.4293 11.8678 23.3782 11.9698 23.3272 12.0719C22.0256 15.2877 20.6984 18.5035 19.3968 21.7193C19.3458 21.8213 19.3202 21.8469 19.2182 21.8469C18.3759 21.8469 17.5337 21.8469 16.6915 21.8469C16.5894 21.8469 16.5639 21.8213 16.5383 21.7193C15.8237 18.9629 15.0836 16.2065 14.369 13.4501C14.3434 13.297 14.2924 13.1694 14.2669 13.0162C14.3434 12.9907 14.369 13.0418 14.42 13.0673C14.9304 13.3736 15.3898 13.7309 15.8237 14.1392C16.5894 14.8538 17.1764 15.6705 17.6358 16.5893C17.6613 16.7935 17.7379 16.9466 17.7634 17.1508Z" fill="#C2CFE0"/>
<path d="M24.1438 21.8724C23.761 21.8724 23.3526 21.8724 22.9698 21.8724C22.8677 21.8724 22.8422 21.8469 22.8677 21.7448C23.1229 20.1624 23.3782 18.58 23.6334 17.0232C23.9141 15.3388 24.1694 13.6798 24.4501 11.9954C24.5011 11.7401 24.5011 11.7401 24.7564 11.7401C25.4965 11.7401 26.2111 11.7401 26.9513 11.7401C27.0533 11.7401 27.1044 11.7657 27.0789 11.8933C26.8236 13.3991 26.5939 14.9304 26.3387 16.4362C26.109 17.8399 25.8793 19.2181 25.6496 20.6218C25.5986 21.0046 25.522 21.3875 25.471 21.7703C25.4455 21.8724 25.4199 21.8979 25.3178 21.8979C24.935 21.8724 24.5522 21.8724 24.1438 21.8724Z" fill="#C2CFE0"/>
<path d="M23.4037 4.3131C23.225 4.3131 23.0464 4.3131 22.8422 4.3131C22.7401 4.3131 22.689 4.33862 22.689 4.44071C22.6125 5.00219 22.5104 5.56368 22.4338 6.12516C22.2807 7.14605 22.1276 8.14141 21.9744 9.16229C21.9744 9.23885 21.9489 9.26438 21.8723 9.26438C21.4129 9.26438 20.9791 9.26438 20.5197 9.26438C20.4431 9.26438 20.4176 9.23885 20.4431 9.16229C20.6983 7.60544 20.928 6.02308 21.1832 4.46623C21.2088 4.36414 21.1832 4.3131 21.0812 4.33862C20.8515 4.33862 20.6473 4.33862 20.4176 4.33862C20.341 4.33862 20.3155 4.33862 20.3155 4.23653C20.3665 3.87922 20.4176 3.54744 20.4686 3.19013C20.4686 3.11356 20.5197 3.06252 20.5962 3.06252C20.8259 3.06252 21.0556 3.06252 21.2598 3.06252C21.3619 3.06252 21.3619 3.037 21.3874 2.96043C21.4385 2.5776 21.4895 2.19477 21.5661 1.81194C21.7702 0.893146 22.3828 0.331661 23.3016 0.178529C23.6844 0.127484 24.0417 0.101962 24.4245 0.153006C24.5522 0.153006 24.6032 0.204051 24.5777 0.331661C24.5777 0.663447 24.5777 1.02076 24.5777 1.35254C24.5777 1.42911 24.5522 1.45463 24.4756 1.42911C24.2714 1.40359 24.0672 1.37806 23.8631 1.40359C23.4037 1.42911 23.0974 1.65881 23.0208 2.1182C22.9698 2.39895 22.9187 2.70521 22.8677 3.01148C22.8422 3.08804 22.8677 3.11356 22.9443 3.11356C23.2761 3.11356 23.5823 3.11356 23.9141 3.11356C24.0162 3.11356 24.0417 3.13909 24.0162 3.21565C24.0162 3.57296 24.0162 3.90475 24.0162 4.26205C24.0162 4.36414 23.9907 4.36414 23.8886 4.36414C23.761 4.3131 23.5823 4.3131 23.4037 4.3131Z" fill="#C2CFE0"/>
<path d="M15.0324 4.23677C15.2111 4.05812 15.3642 3.87946 15.5429 3.70081C15.9512 3.31798 16.4362 3.03724 16.9976 2.93515C17.0487 2.93515 17.0997 2.93515 17.1253 2.90963C17.2018 2.8841 17.2273 2.90963 17.2273 3.01171C17.2273 3.44559 17.2273 3.87946 17.2273 4.31334C17.2273 4.41543 17.2018 4.44095 17.0997 4.44095C16.5638 4.49199 16.0789 4.67065 15.6195 4.97691C15.3642 5.15557 15.1345 5.35974 14.9048 5.58944C14.8538 5.64048 14.8283 5.71705 14.8027 5.79362C14.6241 6.89106 14.471 7.98851 14.2923 9.08596C14.2668 9.18805 14.2413 9.21357 14.1392 9.21357C13.7053 9.21357 13.2714 9.21357 12.8376 9.21357C12.7355 9.21357 12.7099 9.18805 12.7355 9.08596C12.9907 7.42703 13.2459 5.76809 13.5011 4.10916C13.5522 3.77738 13.6032 3.44559 13.6543 3.1138C13.6543 3.03724 13.6798 3.01171 13.7819 3.01171C14.1647 3.01171 14.522 3.01171 14.9048 3.01171C14.9814 3.01171 15.0069 3.03724 15.0069 3.1138C15.0324 3.52216 15.0324 3.87946 15.0324 4.23677Z" fill="#C2CFE0"/>
<path d="M17.993 9.26451C17.7888 9.26451 17.5591 9.26451 17.3549 9.26451C17.2529 9.26451 17.2018 9.23899 17.2273 9.1369C17.3294 8.52437 17.406 7.91184 17.5081 7.29931C17.6867 6.20186 17.8399 5.07889 18.0185 3.98145C18.0696 3.72623 18.0951 3.44548 18.1461 3.19026C18.1461 3.1137 18.1972 3.06265 18.2737 3.06265C18.7076 3.06265 19.1415 3.06265 19.5754 3.06265C19.6774 3.06265 19.703 3.08817 19.6774 3.19026C19.4477 4.72159 19.218 6.25291 18.9628 7.75871C18.8863 8.2181 18.8097 8.70302 18.7586 9.16242C18.7586 9.23899 18.7076 9.26451 18.6566 9.26451C18.4269 9.23899 18.1972 9.26451 17.993 9.26451Z" fill="#C2CFE0"/>
<path d="M25.7007 3.06272C25.9304 3.06272 26.1601 3.06272 26.3643 3.06272C26.4664 3.06272 26.4664 3.08825 26.4664 3.16481C26.1856 5.05344 25.8794 6.9676 25.5986 8.85623C25.5731 8.95831 25.5476 9.0604 25.5476 9.16249C25.5476 9.23906 25.4965 9.26458 25.4455 9.26458C24.9861 9.26458 24.5522 9.26458 24.0928 9.26458C23.9652 9.26458 23.9907 9.21353 24.0163 9.13697C24.0673 8.75414 24.1439 8.37131 24.1949 7.98848C24.3736 6.81446 24.5522 5.66597 24.7309 4.49196C24.8074 4.05808 24.8585 3.62421 24.9351 3.16481C24.9606 3.06272 24.9861 3.0372 25.0882 3.0372C25.2668 3.06272 25.4965 3.06272 25.7007 3.06272Z" fill="#C2CFE0"/>
<path d="M17.7633 17.1508C17.457 16.3596 17.0232 15.645 16.4872 15.007C15.8492 14.2158 15.0835 13.5777 14.2157 13.0673C14.2157 13.0673 14.1902 13.0673 14.1647 13.0418C13.6032 12.6845 13.0162 12.4292 12.4037 12.2251C12.1229 12.123 11.8167 12.0209 11.5359 11.9443C11.4594 11.9188 11.4338 11.8933 11.4338 11.8167C11.4338 11.7401 11.4849 11.7401 11.5614 11.7401C12.9396 11.7401 14.3434 11.7401 15.7215 11.7401C16.4872 11.7401 16.7935 12.123 16.9211 12.8376C17.1763 14.2158 17.457 15.594 17.7378 16.9722C17.7888 17.0232 17.7888 17.0742 17.7633 17.1508Z" fill="#C2CFE0"/>
<path d="M20.1624 1.0209C20.1624 1.70999 19.3967 2.22043 18.7587 1.96521C18.4013 1.81208 18.2227 1.48029 18.3248 1.07194C18.4524 0.535977 19.0139 0.178669 19.5498 0.280757C19.9327 0.331801 20.1624 0.612544 20.1624 1.0209Z" fill="#C2CFE0"/>
<path d="M26.9258 1.02073C26.9258 1.70983 26.1856 2.22027 25.5476 1.99057C25.1648 1.86296 24.9861 1.48013 25.0882 1.07177C25.2158 0.535812 25.8028 0.178503 26.3643 0.306113C26.7216 0.357157 26.9513 0.6379 26.9258 1.02073Z" fill="#C2CFE0"/>
<path d="M43.7447 21.7703C43.6682 21.3875 43.5916 21.0046 43.515 20.6218C42.9025 17.6868 42.29 14.7773 41.6775 11.8422C41.6519 11.7657 41.6264 11.7401 41.5499 11.7401C40.8863 11.7401 40.1972 11.7401 39.5336 11.7401C38.9211 11.7401 38.4872 12.0209 38.2575 12.6079C37.058 15.4664 35.884 18.2993 34.6844 21.1578C34.5823 21.3875 34.5058 21.6172 34.4037 21.8469C34.4292 21.8469 34.4292 21.8724 34.4547 21.8724C35.3225 21.8724 36.2157 21.8724 37.0835 21.8724C37.1601 21.8724 37.1856 21.8213 37.2111 21.7703C37.3642 21.3364 37.5174 20.9026 37.6705 20.4687C37.696 20.3666 37.7471 20.3411 37.8492 20.3411C38.87 20.3411 39.9164 20.3411 40.9373 20.3411C41.0394 20.3411 41.0649 20.3666 41.0905 20.4687C41.167 20.9026 41.2691 21.3364 41.3712 21.7703C41.3967 21.8469 41.4222 21.8724 41.4988 21.8724C42.2389 21.8724 43.0046 21.8724 43.7447 21.8724C43.7447 21.8724 43.7447 21.8469 43.7447 21.7703ZM40.4269 18.2738C39.8144 18.2738 39.1763 18.2738 38.5638 18.2738C38.5127 18.2738 38.4872 18.2738 38.4106 18.2738C38.87 17.0232 39.3294 15.7726 39.7888 14.4965C39.8909 15.007 39.993 15.4664 40.0696 15.9258C40.2227 16.6659 40.3758 17.406 40.529 18.1207C40.58 18.2483 40.5545 18.2738 40.4269 18.2738Z" fill="#C2CFE0"/>
<path d="M39.6358 0C39.2019 0.0765661 38.7425 0.153132 38.3086 0.204176C38.2065 0.229698 38.1555 0.25522 38.13 0.357309C38.0024 1.2761 37.8492 2.1949 37.7216 3.08817C37.7216 3.16473 37.6961 3.19025 37.6195 3.16473C37.1601 3.0116 36.7007 2.96056 36.2158 2.96056C35.4246 2.98608 34.7355 3.29234 34.1996 3.87935C33.6636 4.44083 33.3573 5.12993 33.1787 5.89559C33.0256 6.55916 32.949 7.24826 33.1276 7.91183C33.3573 8.83063 33.9954 9.34107 34.9652 9.36659C35.6798 9.36659 36.2413 9.08584 36.7773 8.62645C36.8539 8.54988 36.9304 8.47332 37.0325 8.39675C37.0325 8.65197 37.0325 8.88167 37.0325 9.11137C37.0325 9.18793 37.058 9.23898 37.1346 9.23898C37.5174 9.23898 37.8747 9.23898 38.2576 9.23898C38.3341 9.23898 38.3597 9.21346 38.3852 9.13689C38.4873 8.37123 38.6149 7.60557 38.7425 6.83991C38.9211 5.66589 39.0998 4.5174 39.2785 3.34339C39.4571 2.24594 39.6102 1.17401 39.7889 0.0765661C39.7379 0 39.7379 0 39.6358 0ZM37.4919 4.59397C37.3643 5.41067 37.2367 6.20186 37.1091 7.01856C37.0836 7.12065 37.058 7.17169 37.007 7.24826C36.7007 7.529 36.3945 7.78422 36.0116 7.93735C35.8075 8.01392 35.6033 8.03944 35.3991 7.9884C34.9652 7.91183 34.71 7.60557 34.6334 7.09513C34.5569 6.35499 34.6845 5.64037 35.0673 5.00232C35.3736 4.49188 35.8075 4.21114 36.471 4.23666C36.7773 4.23666 37.1091 4.31322 37.4153 4.46636C37.4664 4.49188 37.5174 4.5174 37.4919 4.59397Z" fill="#C2CFE0"/>
<path d="M32.5405 4.95142C32.4895 4.44098 32.3364 3.95606 31.9535 3.54771C31.4941 3.06279 30.9071 2.90965 30.2691 2.93518C29.1461 2.9607 28.2784 3.44562 27.6403 4.36441C27.0278 5.25768 26.8236 6.27856 26.9257 7.35049C26.9767 7.9375 27.2064 8.47346 27.6914 8.85629C28.1508 9.23912 28.7122 9.36673 29.2993 9.39225C30.2691 9.4433 31.1624 9.18808 31.9791 8.70316C32.0301 8.67763 32.0812 8.65211 32.0812 8.57555C32.0812 8.19272 32.0812 7.83541 32.0812 7.42706C31.9025 7.52914 31.7494 7.60571 31.5962 7.7078C30.9582 8.03958 30.2946 8.26928 29.5545 8.16719C29.0951 8.11615 28.7378 7.91197 28.5591 7.4781C28.4315 7.19736 28.4315 6.91661 28.4315 6.61035C28.4315 6.48274 28.457 6.45722 28.5846 6.45722C29.8097 6.45722 31.0603 6.45722 32.2853 6.45722C32.3874 6.45722 32.4129 6.4317 32.4385 6.32961C32.5661 5.87021 32.5916 5.41081 32.5405 4.95142ZM30.9837 5.48738C30.6009 5.48738 30.2436 5.48738 29.8607 5.48738C29.4779 5.48738 29.1206 5.48738 28.7378 5.48738C28.6867 5.48738 28.6357 5.5129 28.6612 5.41081C28.7888 4.95142 28.993 4.51754 29.4013 4.21128C29.6821 4.0071 30.0139 3.93054 30.3712 4.0071C30.8051 4.10919 30.9837 4.41545 31.0603 4.82381C31.0858 5.00246 31.0858 5.18112 31.1113 5.35977C31.1113 5.46186 31.0858 5.48738 30.9837 5.48738Z" fill="#C2CFE0"/>
<path d="M12.3271 4.64511C12.174 3.85392 11.7656 3.29244 10.9489 3.03722C9.80041 2.67991 8.47327 3.11378 7.70761 4.0581C6.91642 5.05346 6.63568 6.17643 6.78881 7.42701C6.8909 8.37133 7.42686 9.00938 8.37118 9.23908C9.62176 9.54534 10.7958 9.29012 11.8677 8.65207C11.8932 8.62655 11.9443 8.60102 11.9443 8.54998C11.9443 8.16715 11.9443 7.78432 11.9443 7.40149C11.7656 7.50358 11.5614 7.60567 11.3828 7.70775C10.7703 8.01402 10.1322 8.21819 9.41758 8.14163C8.95819 8.09058 8.57536 7.86089 8.3967 7.42701C8.29461 7.14627 8.26909 6.86553 8.26909 6.58478C8.26909 6.48269 8.29461 6.45717 8.3967 6.45717C9.28997 6.45717 10.1832 6.45717 11.0765 6.45717C11.4338 6.45717 11.7911 6.45717 12.1484 6.45717C12.225 6.45717 12.2505 6.43165 12.2761 6.35508C12.4037 5.7936 12.4292 5.20659 12.3271 4.64511ZM10.8213 5.48733C10.4385 5.48733 10.0812 5.48733 9.69833 5.48733C9.31549 5.48733 8.95819 5.48733 8.57535 5.48733C8.49879 5.48733 8.47327 5.46181 8.49879 5.38525C8.6264 5.00242 8.77953 4.61959 9.11132 4.33884C9.41758 4.0581 9.80041 3.93049 10.2088 4.03258C10.4895 4.08362 10.6937 4.26228 10.7958 4.54302C10.9234 4.82376 10.9234 5.13003 10.9234 5.43629C10.9234 5.51286 10.8723 5.48733 10.8213 5.48733Z" fill="#C2CFE0"/>
<path d="M45.7355 5.56367C45.6334 5.05323 45.3527 4.6704 44.8167 4.51727C44.4084 4.38966 44.0255 4.4407 43.6427 4.59384C43.3875 4.69592 43.1578 4.87458 42.9281 5.05323C43.0812 4.13444 43.2088 3.24117 43.3364 2.3479C43.362 2.24581 43.3364 2.22029 43.2344 2.24581C42.9026 2.29685 42.5963 2.3479 42.2645 2.39894C42.188 2.39894 42.1624 2.44998 42.1369 2.52655C42.0093 3.41982 41.8562 4.33862 41.7286 5.23189C41.5499 6.45694 41.3457 7.65648 41.1671 8.88154C41.1416 8.98363 41.1671 9.00915 41.2692 9.06019C41.9583 9.26437 42.6729 9.39198 43.413 9.31541C44.1021 9.23885 44.6891 8.98363 45.123 8.42214C45.7355 7.55439 45.9142 6.58455 45.7355 5.56367ZM44.6125 6.45694C44.587 6.81425 44.536 7.14604 44.4084 7.47783C44.1531 8.1414 43.6427 8.42214 42.9281 8.34558C42.8005 8.32005 42.6729 8.29453 42.5453 8.26901C42.4687 8.24349 42.4432 8.19244 42.4432 8.11588C42.5197 7.65648 42.5708 7.22261 42.6473 6.76321C42.6729 6.61008 42.6984 6.48247 42.7239 6.32933C42.7239 6.15068 42.8005 6.02307 42.9281 5.92098C43.1578 5.74233 43.413 5.56367 43.7193 5.48711C44.1021 5.41054 44.4084 5.58919 44.536 5.9465C44.587 6.12516 44.6125 6.30381 44.6125 6.45694Z" fill="#C2CFE0"/>
</svg>
